PathFileType	4	(X/Y/Z)	55_2_52_p0_0-349.trc
DataRate	CameraRate	NumFrames	NumMarkers	Units	OrigDataRate	OrigDataStartFrame	OrigNumFrames
60.0	60.0	7	27	m	60.0	131	350
Frame#	Time	RHip			RKnee			RAnkle			RBigToe			RSmallToe			RHeel			LHip			LKnee			LAnkle			LBigToe			LSmallToe			LHeel			Neck			Head			Nose			RShoulder			RElbow			RWrist			RThumb			RIndex			RPinky			LShoulder			LElbow			LWrist			LThumb			LIndex			LPinky			
		X1	Y1	Z1	X2	Y2	Z2	X3	Y3	Z3	X4	Y4	Z4	X5	Y5	Z5	X6	Y6	Z6	X7	Y7	Z7	X8	Y8	Z8	X9	Y9	Z9	X10	Y10	Z10	X11	Y11	Z11	X12	Y12	Z12	X13	Y13	Z13	X14	Y14	Z14	X15	Y15	Z15	X16	Y16	Z16	X17	Y17	Z17	X18	Y18	Z18	X19	Y19	Z19	X20	Y20	Z20	X21	Y21	Z21	X22	Y22	Z22	X23	Y23	Z23	X24	Y24	Z24	X25	Y25	Z25	X26	Y26	Z26	X27	Y27	Z27	
131	2.183333333333333	0.3260088153968136	0.5148971340326386	0.7729809161631761	0.32152555286993073	0.5635661580283617	1.1988400656207363	0.3151313500246006	0.6275786791970605	1.63785416776022	0.2917138844109391	0.4322974758882451	1.6401599255566717	0.35403629069198983	0.4754980166208792	1.6671528543407312	0.30266962024598915	0.680762907821296	1.6943681991396558	0.12135013351755167	0.5711566911135616	0.7955386434479086	0.13326563725021648	0.5981590884772433	1.2034217375152543	0.14813488405493427	0.6135332454754997	1.5944884656602376	0.12857512149680814	0.4175143216611352	1.6187952367211829	0.08144958007630697	0.46544024013237906	1.6359511437333951	0.16602803983254077	0.6576595259323207	1.6704107525143015	0.24209841186649506	0.5708683996370313	0.20346384061816986	0.24080817721710854	0.5810375398012453	-0.04465440804684926	0.2264990495259302	0.5145280282932706	0.06087000410492079	0.38373204662490024	0.5591359117179902	0.3068629664278831	0.40201001605928294	0.4622984886981845	0.5623575149621866	0.26557337172983864	0.3408175214814267	0.7240058920307757	0.19352205341629378	0.408737964068607	0.8256133752018819	0.18943539845851504	0.39858755471203405	0.8213822862032523	0.1955545803216971	0.3829718209893815	0.8255989854263518	0.08113414676937009	0.5987750163593437	0.2982412149998775	0.052401413692386156	0.5071651951022196	0.5343208830973989	0.1563909857610779	0.3658423758841431	0.7064631643287352	0.21742683636612373	0.40285208651116555	0.8093077438655039	0.2206231626232705	0.40165811660157313	0.8430222330423478	0.19839425230931174	0.3780229198088421	0.8155992049282247
132	2.2	0.32608035961908627	0.5132333005884051	0.7769115173335823	0.3224702176071123	0.5643358130003646	1.2038261528223073	0.3150578736349557	0.6276668993847894	1.638066345890489	0.2915581947407766	0.4324376220762276	1.639996257959727	0.35410098480480173	0.475566531274492	1.6670993010039032	0.3035123257925067	0.6817921895184467	1.7000807934180073	0.1263877841578974	0.5583440046691845	0.7923292839466857	0.13712483544619147	0.5839284974724381	1.1962631212935098	0.1482159967693681	0.61366936268116	1.5944832313794388	0.1309872861959744	0.40501660830714065	1.6062456823272593	0.08702508198280662	0.4651129310947352	1.6318855475388832	0.1671678299317956	0.6576157980043378	1.66459502991833	0.24226171156034054	0.5701542576081512	0.20675832839975658	0.2447310909100208	0.5822682064836843	-0.04462504413905089	0.23015276456797895	0.5248952216355371	0.06190953327053017	0.37924147929089574	0.5480660137264098	0.3047606653398354	0.4021567906105095	0.462634746776833	0.5625259784837772	0.26466226311165697	0.34125285638928377	0.716941829219967	0.18993730774516965	0.4215543442687923	0.8300471228168216	0.18963830040064922	0.42083286134679443	0.8299179121527351	0.19504329325116954	0.3829444731859433	0.8300248203201013	0.0808694897846133	0.5979999013182827	0.3017915817610963	0.05223320060306613	0.5067166514986776	0.5380187016117591	0.15664618497831745	0.36579384509981855	0.7064477701441898	0.22116385560385257	0.40454899211942325	0.8100827199932391	0.22063047129466784	0.4020657298250847	0.8430399604141888	0.19129922171703564	0.3886614692465745	0.8200713944917041
133	2.216666666666667	0.3260492891584625	0.5130506316487939	0.7769103729216381	0.3224383815873235	0.5643057068448846	1.2037594106477427	0.3150964322123013	0.6276379665489094	1.6380403202588492	0.29147316312055815	0.43225007037047947	1.6399125766108877	0.3491652360992016	0.46399730437821723	1.6592243355876495	0.30332214991097084	0.6815115260378347	1.699729662985554	0.12637496787008556	0.5582778320647037	0.7922628652249021	0.13712224470362455	0.5836456905697741	1.1961008875068535	0.14820863752424293	0.6136172858245267	1.5944273389099142	0.1317789352794071	0.406177672960245	1.612054433863745	0.08703585271284048	0.4649851849184054	1.6318348917548169	0.16718304194891526	0.6575592297639932	1.6645099861734522	0.24222030235659645	0.5701677735939523	0.20692198529342454	0.2447875297465085	0.5821843949975154	-0.04469340248898646	0.23431249621655215	0.5260786203414217	0.058805176736228836	0.37928596613691806	0.5479623334606477	0.30480067580706977	0.40032784209622413	0.4482048798599734	0.558320997968255	0.26522709714520193	0.34177954882922806	0.7201859563089343	0.18980848948749182	0.42152859864059966	0.830025554542743	0.18613541098362876	0.41159656356685337	0.8262029829836748	0.19515140840211956	0.3832727525364568	0.8301531837081553	0.08084814876253071	0.5980491133641167	0.301916352300146	0.05220662550940639	0.50664187980322	0.538052406618669	0.1565745215885954	0.36568846573660035	0.7064078463704953	0.21737176229008184	0.4029459523510039	0.8094600111572492	0.21713498851324148	0.401074723012758	0.8426551850006853	0.19140598797938527	0.38882873113099764	0.8201481873043699
134	2.2333333333333334	0.32605254444022547	0.5131970273443613	0.776844092949511	0.32145662514437995	0.5631563765029509	1.1990750938645587	0.3150604927904048	0.6274541685236957	1.637955532976286	0.2903120894249729	0.4318318512280571	1.6452605785122159	0.35036697427191166	0.4649889604294555	1.6642191275609106	0.30350949211598144	0.6817913456904948	1.7000527362453615	0.12572002405822508	0.5573772378166256	0.7868384251785956	0.13703762096947603	0.5835798551037321	1.1960916445127674	0.1482225716185491	0.6136669022289396	1.594438358885434	0.13508522809577123	0.4210799358036331	1.6170285801441155	0.08702131231572154	0.4652091559352021	1.6319644866160639	0.167230122830442	0.6577128053330683	1.6645505438348265	0.24227995151782125	0.5701999483960283	0.2069182662144342	0.2448494762562077	0.5821983286098247	-0.04468007441725139	0.23453099682010273	0.5255921570844075	0.06224327333827804	0.3793132884665985	0.547974168812741	0.3048194929846002	0.40035963203393043	0.44795754378302716	0.5582733860229172	0.2646021845108153	0.3410276867055395	0.7168977443386255	0.18924534087889752	0.42106632230973584	0.8292683442101644	0.1890681657628153	0.4203070167546218	0.8291781360248714	0.19536880110775492	0.38165004243723466	0.8337046486337438	0.08843039961815992	0.611747590327318	0.30440271263232843	0.05214672477929278	0.5066403171817735	0.5379764893751477	0.15647576407415148	0.36568278759426537	0.7064112725288488	0.21729566096483888	0.40309294490993497	0.8095970619429365	0.21711861278047268	0.4013646132068781	0.8429347920829391	0.19611225047378605	0.39142654176587627	0.8253414220616888
135	2.25	0.32515422908919345	0.5137040400749682	0.7686348418274539	0.32139426000625887	0.563006864960199	1.1991156851438398	0.31591905432695844	0.6272965797057464	1.6329261245582622	0.2926627716667753	0.4330698647991083	1.6451865629962117	0.3502065640481554	0.46480924645797733	1.6642690687480406	0.30368126215914404	0.6819676926355203	1.7001630075273817	0.12572672259995546	0.5573418145982276	0.7865252074502244	0.13694420264473664	0.5837020893620808	1.196066272327683	0.1482440408114601	0.6135662932035321	1.5941274870472475	0.13507950540185898	0.4210071722647091	1.6168581990641058	0.08292159514714031	0.4786322348139826	1.6410195670015357	0.1672290080181709	0.6576599280289949	1.6643793584830748	0.24240315293343243	0.570144047751887	0.20686224783210477	0.24511610992266436	0.5825340288189396	-0.04134384936509182	0.2345797856876672	0.5260976381937509	0.059204003399986924	0.37923076195235833	0.5477523065843404	0.30477844349484123	0.4003879221552976	0.4480172942205787	0.5583498980072815	0.2645183732647496	0.34123410207485827	0.7169196242525689	0.18928988108172012	0.42225445181747384	0.8304289309463687	0.18620339753179	0.41245215378961414	0.8272069690001842	0.1956498224089149	0.38233552318527564	0.8418264225664704	0.08851149698858066	0.6119386304110767	0.3044086366719493	0.0521562349174751	0.5065612314350972	0.5378315000582152	0.1591079284554189	0.35283247218067076	0.6978946853548832	0.2131061053233976	0.39257413116837786	0.8055544373414733	0.21680248706671265	0.40078556956227956	0.8429200297471602	0.19086429467480018	0.3886292976827866	0.8195951309973797
136	2.2666666666666666	0.32590161683591107	0.5143932035906793	0.7729956977051654	0.32240360106620036	0.5641045379184879	1.2036842689171994	0.3159251911079497	0.6273345604933045	1.6329267412116948	0.2915094218740447	0.43224069746994187	1.6397758133215274	0.3503887818203968	0.4652488357741812	1.6643329466908097	0.3036242213542031	0.6817768102718483	1.6999805553177332	0.12577442406041445	0.5573950837094999	0.7869083035672584	0.13698253640609345	0.583802406056309	1.196166109347066	0.1482345303283391	0.613585412997952	1.5941806409373125	0.13411668259522927	0.4201050543490093	1.611227303469878	0.082905610364198	0.4786956424568215	1.6409804425649464	0.16722423840916883	0.657649945707414	1.664396629206542	0.2424312324555951	0.5701161048661582	0.2068324243363151	0.2451443112330456	0.5825500074462764	-0.041318833980469066	0.23449920688253903	0.5257128254112912	0.06228539577773823	0.3792251332405569	0.5476186871105755	0.3047547224089619	0.4003979868275153	0.4480469986328869	0.5583896644710564	0.2645638454650442	0.341314629226296	0.7169560438416717	0.1894131768816255	0.42232652475666005	0.8305102815427365	0.1864228841095102	0.4125522317624851	0.8274261133465538	0.19544585330552283	0.3835449875014399	0.8382985223807017	0.08857763622446757	0.6119887171325735	0.3043826682865633	0.05216517325609663	0.5066338067875272	0.5378855135858396	0.15915203248009407	0.3526599364087659	0.6978263334418787	0.2093228619998225	0.3912218105022324	0.8050646366681526	0.21691426895554347	0.39987065903662933	0.8456819912326523	0.19088847199622874	0.38874454978662815	0.8195535072340758
137	2.283333333333333	0.3287232887435221	0.500459764955631	0.7677156154035327	0.32148117089392975	0.5631462699991778	1.198892569541431	0.3171097984376222	0.6288430119156481	1.6386939432086924	0.29146488683057953	0.43211532135451136	1.6396939048100185	0.35031368467905644	0.46510359750214114	1.6642931343201137	0.30356973243292906	0.6821383824404753	1.7003160475780799	0.12574691718868738	0.5574619246600271	0.7867262608922059	0.13309970681207667	0.5979574458135287	1.2032842444155551	0.1482402928847269	0.6137174948828957	1.5943329557733243	0.13044418333312124	0.40689971486826304	1.6023564926648322	0.08243794352626396	0.4649089744210407	1.6318466379514758	0.16611685014016753	0.658015414094134	1.6703002096315709	0.2424359009588183	0.570139245537028	0.20682521864923506	0.24515628798883057	0.5824521671432713	-0.041287499527642234	0.2345197125223186	0.5258117331994445	0.06244707010761748	0.3792639222966874	0.5476711337667701	0.30476813763804655	0.4044934099059833	0.44864194041093425	0.5584946963298739	0.2645665095482346	0.341381404658966	0.716926023454086	0.18942051047684438	0.42223183819599586	0.8304123152421263	0.18637917374626936	0.4125078060692927	0.8273175343361256	0.19545353784294753	0.38360133543418184	0.8383798011272101	0.08853849000740006	0.6119227889553203	0.30436996652271125	0.05212566299540424	0.5066278322450545	0.5378491524737983	0.15914797404418693	0.35279647867201425	0.697876968092315	0.2130292765319721	0.39279119699478654	0.8056526081382369	0.216771368550069	0.4009096237327721	0.8427764938365809	0.19092345532278293	0.3887584585487874	0.8195872031359264
